<!-- BladeCN logo: mark + wordmark (Inter SemiBold outlines). Fixed colour #0a0a0a for READMEs. -->
<svg xmlns="http://www.w3.org/2000/svg" viewBox="0 0 161.66 32" fill="#0a0a0a">
  <path fill-rule="evenodd" d="M8 0h14l10 10v14a8 8 0 0 1-8 8H8a8 8 0 0 1-8-8V8a8 8 0 0 1 8-8ZM10.2 7.2L10.2 12.831L5.763 16L10.2 19.169L10.2 24.8L14.5 24.8L14.5 22.2L12.8 22.2L12.8 17.831L10.237 16L12.8 14.169L12.8 9.8L14.5 9.8L14.5 7.2ZM19.2 9.8L19.2 14.169L21.763 16L19.2 17.831L19.2 22.2L17.5 22.2L17.5 24.8L21.8 24.8L21.8 19.169L26.237 16L21.8 12.831L21.8 7.2L17.5 7.2L17.5 9.8Z"/>
  <path transform="translate(41 26.564)" d="M2.126953125 0.0H10.6489453125C15.484218750000002 0.0 17.8522265625 -2.467265625 17.8522265625 -5.756953125000001C17.8522265625 -8.9473828125 15.583476562500001 -10.8191015625 13.343085937500001 -10.932539062500002V-11.145234375000001C15.399140625000001 -11.627343750000001 17.0298046875 -13.073671875 17.0298046875 -15.640195312500001C17.0298046875 -18.773906250000003 14.775234375000002 -21.127734375000003 10.209375000000001 -21.127734375000003H2.126953125ZM5.9129296875 -3.1620703125000005V-9.386953125000002H10.181015625C12.53484375 -9.386953125000002 14.009531250000002 -7.926445312500001 14.009531250000002 -6.040546875C14.009531250000002 -4.367343750000001 12.846796875 -3.1620703125000005 10.0533984375 -3.1620703125000005ZM5.9129296875 -12.1236328125V-17.97984375H9.81234375C12.08109375 -17.97984375 13.243828125000002 -16.78875 13.243828125000002 -15.158085937500001C13.243828125000002 -13.286367187500002 11.7266015625 -12.1236328125 9.727265625000001 -12.1236328125Z M24.536093750000006 -21.127734375000003H20.849375000000002V0.0H24.536093750000006Z M32.62375000000001 0.32613281250000004C35.091015625000004 0.32613281250000004 36.59406250000001 -0.8224218750000001 37.2888671875 -2.1836718750000004H37.43066406250001V0.0H40.96140625000001V-10.5922265625C40.96140625000001 -14.817773437500001 37.473203125000005 -16.051406250000003 34.49546875000001 -16.051406250000003C31.319218750000005 -16.051406250000003 28.710156250000004 -14.704335937500002 27.774296875000005 -11.910937500000001L31.191601562500004 -11.216132812500001C31.574453125000005 -12.265429687500001 32.666289062500006 -13.215468750000001 34.509648437500005 -13.215468750000001C36.310468750000005 -13.215468750000001 37.274687500000006 -12.30796875 37.274687500000006 -10.7623828125V-10.691484375000002C37.274687500000006 -9.5996484375 36.11195312500001 -9.557109375000001 33.36109375000001 -9.259335937500001C30.298281250000006 -8.933203125 27.320546875000005 -8.025703125000001 27.320546875000005 -4.452421875000001C27.320546875000005 -1.332890625 29.603476562500006 0.32613281250000004 32.62375000000001 0.32613281250000004ZM33.573789062500005 -2.410546875C32.01402343750001 -2.410546875 30.893828125000006 -3.11953125 30.893828125000006 -4.4949609375C30.893828125000006 -5.941289062500001 32.14164062500001 -6.551015625000001 33.800664062500005 -6.777890625C34.750703125 -6.905507812500001 36.80675781250001 -7.1607421875 37.30304687500001 -7.557773437500001V-5.6860546875C37.30304687500001 -3.9277734375000004 35.84253906250001 -2.410546875 33.573789062500005 -2.410546875Z M50.467031250000005 0.28359375000000003C53.203710937500006 0.28359375000000003 54.42316406250001 -1.36125 55.00453125000001 -2.5098046875000004H55.231406250000006V0.0H58.84722656250001V-21.127734375000003H55.16050781250001V-13.229648437500002H55.00453125000001C54.437343750000004 -14.349843750000002 53.274609375000004 -16.051406250000003 50.45285156250001 -16.051406250000003C46.794492187500005 -16.051406250000003 43.930195312500004 -13.172929687500002 43.930195312500004 -7.8980859375C43.930195312500004 -2.694140625 46.7094140625 0.28359375000000003 50.467031250000005 0.28359375000000003ZM51.4737890625 -2.750859375C49.00652343750001 -2.750859375 47.701992187500004 -4.93453125 47.701992187500004 -7.912265625000001C47.701992187500004 -10.861640625000001 48.97816406250001 -13.016953125 51.4737890625 -13.016953125C53.89851562500001 -13.016953125 55.231406250000006 -11.0034375 55.231406250000006 -7.912265625000001C55.231406250000006 -4.82109375 53.87015625000001 -2.750859375 51.4737890625 -2.750859375Z M69.50140625 0.32613281250000004C73.0321484375 0.32613281250000004 75.49941406250001 -1.36125 76.26511718750001 -3.9277734375000004L72.87617187500001 -4.622578125C72.3798828125 -3.2755078125000003 71.1604296875 -2.5665234375000003 69.5439453125 -2.5665234375000003C67.1759375 -2.5665234375000003 65.57363281250001 -4.069570312500001 65.47437500000001 -6.891328125H76.506171875V-8.0540625C76.506171875 -13.6125 73.13140625 -16.051406250000003 69.2603515625 -16.051406250000003C64.7228515625 -16.051406250000003 61.8018359375 -12.705000000000002 61.8018359375 -7.827187500000001C61.8018359375 -2.8642968750000004 64.7228515625 0.32613281250000004 69.50140625 0.32613281250000004ZM65.4885546875 -9.4011328125C65.6587109375 -11.513906250000002 67.0199609375 -13.158750000000001 69.27453125000001 -13.158750000000001C71.4723828125 -13.158750000000001 72.706015625 -11.669882812500001 72.91871093750001 -9.4011328125Z M88.5925 0.28359375000000003C93.58375000000001 0.28359375000000003 96.93015625000001 -2.9919140625000002 97.5115234375 -7.033125000000001H93.68300781250001C93.2008984375 -4.5375000000000005 91.15902343750001 -3.1053515625 88.6350390625 -3.1053515625C85.2035546875 -3.1053515625 82.722109375 -5.700234375000001 82.722109375 -10.549687500000001C82.722109375 -15.342421875000001 85.189375 -18.022382812500002 88.64921875 -18.022382812500002C91.173203125 -18.022382812500002 93.215078125 -16.590234375 93.68300781250001 -14.094609375000001H97.49734375C96.83089843750001 -18.7171875 93.22925781250001 -21.411328125 88.5925 -21.411328125C83.0766015625 -21.411328125 78.921953125 -17.384296875 78.921953125 -10.549687500000001C78.921953125 -3.7434375 83.0340625 0.28359375000000003 88.5925 0.28359375000000003Z M100.73554687500001 0.0H104.59242187500001V-10.492968750000001C104.59242187500001 -11.669882812500001 104.4648046875 -13.896093750000002 104.32300781250001 -16.505156250000002C105.74097656250001 -13.754296875000001 106.53503906250002 -12.25125 107.64105468750002 -10.4787890625L114.23460937500002 0.0H118.53105468750002V-21.127734375000003H114.688359375V-10.039218750000002C114.688359375 -8.7488671875 114.77343750000001 -6.607734375000001 114.91523437500001 -4.5658593750000005C113.99355468750001 -6.678632812500001 113.071875 -8.2809375 112.32035156250001 -9.486210937500001L105.01781250000002 -21.127734375000003H100.73554687500001Z"/>
</svg>
